PathFileType	4	(X/Y/Z)	pose_F01_0-96.trc
DataRate	CameraRate	NumFrames	NumMarkers	Units	OrigDataRate	OrigDataStartFrame	OrigNumFrames
30	30	9	21	m	30	36	96
Frame#	Time	CHip			RHip			RKnee			RAnkle			RBigToe			RSmallToe			RHeel			LHip			LKnee			LAnkle			LBigToe			LSmallToe			LHeel			Neck			Nose			RShoulder			RElbow			RWrist			LShoulder			LElbow			LWrist			
		X1	Y1	Z1	X2	Y2	Z2	X3	Y3	Z3	X4	Y4	Z4	X5	Y5	Z5	X6	Y6	Z6	X7	Y7	Z7	X8	Y8	Z8	X9	Y9	Z9	X10	Y10	Z10	X11	Y11	Z11	X12	Y12	Z12	X13	Y13	Z13	X14	Y14	Z14	X15	Y15	Z15	X16	Y16	Z16	X17	Y17	Z17	X18	Y18	Z18	X19	Y19	Z19	X20	Y20	Z20	X21	Y21	Z21	
36	1.2	-0.24548981055519392	1.9074506817431467	-0.5702982633137618	-0.26044083052674416	1.9042721414423396	-0.5025153994050324	-0.2649892948154218	1.7380260982219446	-0.45983953790131804	-0.22050606533921788	1.5601761556244726	-0.4893017472452851	-0.2663667628028408	1.5290933083590135	-0.5099319749993143				-0.22894115666493367	1.584530900282586	-0.4467268845871624	-0.22643408652862448	1.9117328822161999	-0.6290284754217813	-0.22656607804927256	1.7542500598395208	-0.6294252109280013	-0.2009825409712822	1.591516810208975	-0.625290284895243	-0.2174239539036929	1.5338288434400513	-0.6313482964941685	-0.20750694672816897	1.5399705662905305	-0.6677653446705378	-0.19886124675898117	1.5838199623905929	-0.6134227490202988	-0.2387664953073378	2.085831823266957	-0.5737387846276402	-0.26029416223667706	2.172428296208898	-0.5956883930716216	-0.25964876929861774	2.080362135485782	-0.4867822645568148	-0.3180262316385872	2.072310510010412	-0.38672237661844133	-0.33492916144551843	2.0715105829624276	-0.44067289816965094	-0.21656833051054195	2.091732011941152	-0.6562573338985782	-0.18469431825460325	2.0608619671338695	-0.7773783906261074	-1.116706274661365	1.871087051707132	0.14604974877187485
37	1.2333333333333334	-0.24545240207476882	1.90196040567791	-0.5493843928206219	-0.26393757809835805	1.897297068618662	-0.485403646104474	-0.2643245502087629	1.7377329718818977	-0.4508872035396886	-0.22050606533921788	1.5601761556244726	-0.4893017472452851	-0.2663667628028408	1.5290933083590135	-0.5099319749993143				-0.22894115666493367	1.584530900282586	-0.4467268845871624	-0.2323881505125731	1.905054581349982	-0.6180559423213589	-0.22554305237530425	1.7511864651013518	-0.6173527855232598	-0.20064982553807606	1.5889557282336377	-0.6210425120816733	-0.21966796519946122	1.53070429366544	-0.6288013040368369	-0.21000116379687547	1.5383915716487842	-0.6649664393618482	-0.19697252784083324	1.5809383389285354	-0.6066290935602071	-0.24633114510868803	2.079083923798563	-0.5612512493254977	-0.2707461156253303	2.1687097396250135	-0.5847902381664196	-0.2657569735740257	2.0750150825722047	-0.4792077774959217	-0.3197467179897013	2.0403780089443866	-0.3923597431783826	-0.3462093717240782	2.0436812537005093	-0.446299828773079	-0.22434737099319402	2.0872106270623436	-0.6435282434091382	-0.19893713222954545	2.050073634726163	-0.743456322986084	-1.1178915629990824	1.8687900200181313	0.1468798272556069
38	1.2666666666666666	-0.24871548033861873	1.8962033326905792	-0.5320212622885016	-0.2610908769980797	1.8906972308892627	-0.4658841204612869	-0.263659805602104	1.7374398455418507	-0.44193486917805913	-0.22050606533921788	1.5601761556244726	-0.4893017472452851	-0.2663667628028408	1.5290933083590135	-0.5099319749993143				-0.22894115666493367	1.584530900282586	-0.4467268845871624	-0.23233710416825468	1.9006121830295966	-0.5886583310008344	-0.22992845025267344	1.7400003839984477	-0.6201684535700502	-0.19776274506871805	1.585119167031119	-0.6191831316882499	-0.21774560928662554	1.5323619216416111	-0.6308403765576218	-0.20792742781295165	1.5395971482520718	-0.6668337492278344	-0.18817222987816198	1.5761175061155968	-0.6019021381385388	-0.25366070727150336	2.072527908155683	-0.54861231521879	-0.28523388597723115	2.1551919336988297	-0.5745409118630314	-0.27271245043629894	2.0681764895335526	-0.4660862500869068	-0.32146720434081544	2.0084455078783616	-0.3979971097383239	-0.35748958200263786	2.0158519244385915	-0.4519267593765071	-0.23048396128809598	2.077939024778344	-0.6251356721906295	-0.22238511868680297	2.018598458794951	-0.7082324149323431	-1.1190768513367997	1.8664929883291306	0.14770990573933895
39	1.3	-0.24620152833554831	1.8734186630078316	-0.501298977193198	-0.2598634751239666	1.8705848425968634	-0.4416461473883588	-0.26299506099544506	1.7371467192018035	-0.4329825348164297	-0.22050606533921788	1.5601761556244726	-0.4893017472452851	-0.2663667628028408	1.5290933083590135	-0.5099319749993143				-0.22894115666493367	1.584530900282586	-0.4467268845871624	-0.22832056751371552	1.8792164152628568	-0.5606333740348536	-0.24545760203621367	1.7278479108737932	-0.6026860454330771	-0.19243702115862588	1.5752513620693727	-0.6191919360369568	-0.22674018821968467	1.5242411242596456	-0.6422846147117883	-0.2104836883441346	1.5346772031174503	-0.6637087673392054	-0.17756184425037377	1.5666605208702804	-0.6034552099757061	-0.2624230907320359	2.0514967990468715	-0.5199455523421649	-0.2984211874406956	2.130043761817379	-0.5668661080194741	-0.27978692635396846	2.046152477435202	-0.4414000917006107	-0.32318769069192954	1.9765130068123362	-0.4036344762982652	-0.3687697922811976	1.9880225951766737	-0.45755368997993523	-0.2419132069171064	2.055806995323893	-0.6029708516806771	-0.2338899750413779	1.9982288302319495	-0.664463223102549	-1.1202621396745172	1.8641959566401298	0.148539984223071
40	1.3333333333333333	-0.24425601173041034	1.843940761681926	-0.4724710384880869	-0.25937681069776936	1.84120865784068	-0.4101869078398275	-0.2623303163887861	1.7368535928617566	-0.4240302004548002	-0.22050606533921788	1.5601761556244726	-0.4893017472452851	-0.2663667628028408	1.5290933083590135	-0.5099319749993143				-0.22894115666493367	1.584530900282586	-0.4467268845871624	-0.23181573963945712	1.8458555051729626	-0.5391253837653113	-0.24931224014322637	1.7070398453061113	-0.5835768121247916	-0.19066335303282403	1.5681633871151106	-0.6032054610538038	-0.2261447113997587	1.5262797595610205	-0.6387770123866441	-0.20956728627485474	1.5350689304064984	-0.6603967269314682	-0.17620130611564025	1.5606376714486427	-0.6000069555783454	-0.26831118176888835	2.0271774368436026	-0.5062280464602972	-0.31154465070536236	2.101468501099284	-0.5572445351072836	-0.2852484384293625	2.021856588133725	-0.4195258953811309	-0.32254827403605696	1.949704253147589	-0.37300848285633215	-0.3566848574855078	1.9661174013343126	-0.43590609413643355	-0.2500905663411431	2.0313091126291147	-0.587805216393612	-0.2569807323838494	1.9603583877479445	-0.6373020517637837	-1.1214474280122344	1.861898924951129	0.14937006270680306
41	1.3666666666666667	-0.24213978598543343	1.8460914860087636	-0.4574879913626072	-0.25618406839183566	1.8438579357949951	-0.3918742959181826	-0.26166557178212724	1.7365604665217096	-0.41507786609317077	-0.22050606533921788	1.5601761556244726	-0.4893017472452851	-0.2663667628028408	1.5290933083590135	-0.5099319749993143				-0.22894115666493367	1.584530900282586	-0.4467268845871624	-0.2298835167234638	1.8469315482142004	-0.5151629357855838	-0.2561285848714744	1.6968893659378794	-0.5667623685147921	-0.19211219768001467	1.5639103394044434	-0.596690999686466	-0.22752766288649487	1.5235045272641388	-0.6328000332763882	-0.21119591806919996	1.533680785724548	-0.6541468324284759	-0.17719011104899712	1.5534258943472419	-0.5940760299532161	-0.27366298301577424	2.0141215025827055	-0.49444759640311936	-0.3257095582974847	2.0851305361508454	-0.546826763798555	-0.28949374236641073	2.012440478079412	-0.4138287825068132	-0.3135524187107833	1.9322188431279625	-0.36512588320137473	-0.344599922689818	1.9442122074919512	-0.41425849829293193	-0.25577218986423866	2.016335826646937	-0.5758175093795713	-0.25855723876257625	1.9450666141125812	-0.6210395442738802	-1.2240001951853172	1.8320493626063563	0.3185002978067344
42	1.4	-0.2418288642608409	1.8493748341469407	-0.4491646641572136	-0.2527377982469928	1.84536812807338	-0.38224321257767296	-0.2610008271754683	1.7362673401816626	-0.4061255317315413	-0.22050606533921788	1.5601761556244726	-0.4893017472452851	-0.2663667628028408	1.5290933083590135	-0.5099319749993143				-0.22894115666493367	1.584530900282586	-0.4467268845871624	-0.2307216427996853	1.850360232192994	-0.5101896342699089	-0.24741406770651506	1.704359425562625	-0.5506793640995339	-0.19403585746007787	1.565139243955643	-0.5950225750703589	-0.23089471693757924	1.5218689863194028	-0.6333515855674448	-0.21425335855725042	1.5334004072348288	-0.655272421058006	-0.17943808973061712	1.5533472556735914	-0.5917304876832968	-0.276831991438991	2.016703806987465	-0.4884627582857896	-0.33173427930612553	2.0863153366324605	-0.5411625574396414	-0.29246287964989215	2.0138280254978485	-0.4074277712871801	-0.3122640487666374	1.9201909357458657	-0.3656625719819255	-0.3325149878941282	1.9223070136495901	-0.39261090244943025	-0.25901121181903364	2.0203594177444586	-0.5696543938880084	-1.4522196447111242	1.8603952928595642	0.6532149193706263	-0.7423247236286087	1.8430251502461268	-0.14748758398565875
43	1.4333333333333333	-0.23822279901513177	1.8553561200169584	-0.44013966009538597	-0.25298501252414884	1.8513387864294364	-0.37761697965492025	-0.26033608256880936	1.7359742138416157	-0.39717319736991186	-0.22050606533921788	1.5601761556244726	-0.4893017472452851	-0.2663667628028408	1.5290933083590135	-0.5099319749993143				-0.22894115666493367	1.584530900282586	-0.4467268845871624	-0.22907954834760758	1.8596778997366232	-0.5082392833967693	-0.23460939550496307	1.7156124413896525	-0.5565568998000028	-0.19250166363829607	1.5704575389354558	-0.593273437590376	-0.2263186192167016	1.5287091276256268	-0.6302947889755327	-0.21264140498445794	1.5357874776259426	-0.6532268332366531	-0.18295890575711274	1.561035221718351	-0.5891684079996861	-0.27850743924750443	2.024386606433978	-0.4875670288698872	-0.3386913416860942	2.09001540893801	-0.5381671876907176	-0.2929369178272424	2.0188193001519386	-0.4027357222304443	-0.3029634299694114	1.9222066803878168	-0.36861718827234796	-0.3204300530984384	1.900401819807229	-0.3709633066059286	-0.2588637578589275	2.0292516700978145	-0.571038813683756	-0.25921614887529015	1.9383639580283247	-0.5852581988182297	-0.2606492520719001	1.8540009378858973	-0.6134754657780519
44	1.4666666666666666	-0.2404802098002255	1.8670481126072191	-0.4311642692652333	-0.25211499917719526	1.8637966438611582	-0.3673989594279836	-0.2596713379621504	1.7356810875015685	-0.3882208630082824	-0.22050606533921788	1.5601761556244726	-0.4893017472452851	-0.2663667628028408	1.5290933083590135	-0.5099319749993143				-0.22894115666493367	1.584530900282586	-0.4467268845871624	-0.2246620756168557	1.871656143237422	-0.49365699536070584	-0.2242720870493743	1.729802453430035	-0.5428111624270394	-0.19760275929570945	1.5771486086622948	-0.5841312623736155	-0.2208144885799319	1.5326931600574443	-0.6148255312332841	-0.20510343109603105	1.542351674632128	-0.640241058785925	-0.1906326151684792	1.5671230716688471	-0.5602075159597364	-0.2791637806673977	2.0381480182449594	-0.48505327102752926	-0.33725695986321524	2.1027609856507707	-0.5378571459112915	-0.29456976512032457	2.0333749643395884	-0.40400602732850116	-0.2937755375013402	1.9329706788548087	-0.36731831296620154	-0.3083451183027486	1.8784966259648677	-0.34931571076242696	-0.2606847275615297	2.0418601856044805	-0.5632301380794349	-0.25957307519478856	1.9486425862207515	-0.5619905004935525	-0.23919236695780424	1.8643369361107325	-0.6026693363196148
